+15_ID_stride3.mot
nRows=6
nColumns=38

name +15_ID_stride3.mot
datacolumns 38
datarows 6
range 1.2600000000 1.2850000000
endheader
time	pelvis_tilt_moment	pelvis_list_moment	pelvis_rotation_moment	pelvis_tx_force	pelvis_ty_force	pelvis_tz_force	hip_flexion_r_moment	hip_adduction_r_moment	hip_rotation_r_moment	knee_angle_r_moment	ankle_angle_r_moment	subtalar_angle_r_moment	mtp_angle_r_moment	hip_flexion_l_moment	hip_adduction_l_moment	hip_rotation_l_moment	knee_angle_l_moment	ankle_angle_l_moment	subtalar_angle_l_moment	mtp_angle_l_moment	lumbar_extension_moment	lumbar_bending_moment	lumbar_rotation_moment	arm_flex_r_moment	arm_add_r_moment	arm_rot_r_moment	elbow_flex_r_moment	pro_sup_r_moment	wrist_flex_r_moment	wrist_dev_r_moment	arm_flex_l_moment	arm_add_l_moment	arm_rot_l_moment	elbow_flex_l_moment	pro_sup_l_moment	wrist_flex_l_moment	wrist_dev_l_moment
        1.2600000000	      -15.0719759257	      -13.8653316233	       -0.8478738742	       43.7306996327	       17.2513123264	      -40.0992930608	       -3.3721498126	      -54.0929873787	       22.5662579629	       17.9757718269	     -209.4785454383	       46.7303907872	       -0.0275351468	       -9.8424903537	        6.0935827115	       -2.5578037921	       -4.1208757627	        2.5320753007	       -0.2005965571	        0.1631252238	       28.9363413330	       11.9558805147	      -32.7076518422	        0.9267548329	       -2.0116734153	       -3.0950618719	        5.7178229819	       -0.2146810292	       -0.2286487481	       -0.5509592664	        7.1479042252	        6.2898160588	        4.0795630620	        5.8730157009	        0.0010010176	        0.5361507400	       -0.4022794931	
        1.2650000000	      -20.9005898569	      -10.2144881155	       -6.9802516814	       41.6190491177	       -1.4023052745	      -59.6031086709	        6.9936612429	      -45.6506537361	       16.4700977169	       17.0229836373	     -199.0408996024	       43.4607487540	       -0.0312275525	      -12.4456525676	        2.7161728492	       -1.3095112356	       -3.5434095118	        2.5959126665	       -0.3100700081	        0.1615673141	       20.6099874884	       13.0991771076	      -34.7648374004	        0.5657346000	       -2.2867683363	       -3.3109475431	        5.1902773922	       -0.2143360559	       -0.2646142855	       -0.5104898193	        7.3843419917	        6.1871466452	        4.1364020509	        5.4871669469	        0.0133752590	        0.5384650683	       -0.3627825264	
        1.2700000000	      -19.3331099865	      -16.2501236915	       -8.0428177958	       41.3510084166	      -14.5282147325	      -63.7015892452	        6.3494006388	      -42.1376328098	       16.2678799134	        9.8571850471	     -189.8986972896	       41.7045221685	       -0.0351857598	      -14.8812487210	       -0.0823801817	       -0.0156515488	       -3.1784420236	        2.6552406674	       -0.4216862145	        0.1589329383	       14.1976641387	       13.2587618725	      -36.3834912630	        0.1650642101	       -2.3772680291	       -3.4137124668	        4.6666535449	       -0.2105128655	       -0.2902207603	       -0.4690163917	        7.5135265169	        5.8938948149	        4.0852489398	        5.1074225451	        0.0232760658	        0.5315320563	       -0.3265280908	
        1.2750000000	      -14.5554024495	      -26.9939459353	       -8.1446632432	       41.0711540175	      -16.7872788830	      -62.1019678958	        3.5441729881	      -41.8901124353	       16.8969910392	       -0.0808037560	     -180.1785076387	       39.9952399496	       -0.0393448730	      -17.7454507157	       -1.5495272923	        1.1733024779	       -3.2486038929	        2.6720936235	       -0.5207439227	        0.1551286264	        9.0519459225	       13.0032207219	      -37.7511539283	       -0.2829673956	       -2.3636100159	       -3.4246566947	        4.1479482754	       -0.2043244924	       -0.3071167473	       -0.4264661216	        7.5346670374	        5.4553203637	        3.9775694975	        4.7349740198	        0.0312026134	        0.5191009797	       -0.2923987640	
        1.2800000000	       -3.9287697822	      -37.0505246921	       -8.1868228620	       40.2390248825	      -11.7121106574	      -52.5121808671	       -0.0402016317	      -42.8869931169	       18.3772133061	       -8.1447475556	     -168.7091435039	       37.7964576086	       -0.0436138325	      -21.5472397201	       -1.9086535293	        2.1463515709	       -4.2802273568	        2.6688704193	       -0.5958377327	        0.1497238705	        4.8430677095	       11.4289805803	      -38.9078937627	       -0.7949101768	       -2.1875869654	       -3.3587713394	        3.6276215814	       -0.1959397937	       -0.3169389374	       -0.3820320149	        7.4840323231	        4.8729980257	        3.7919747102	        4.3629959769	        0.0375737263	        0.5009961926	       -0.2593231442	
        1.2850000000	        6.3718396751	      -39.7383491717	      -11.7724224223	       35.2777140964	       -2.6084060271	      -46.8828436144	        5.3234532390	      -41.8201042186	       17.1317275370	      -10.9921213652	     -154.2760256928	       34.4076337428	       -0.0476398352	      -26.6731488733	       -0.7602141745	        2.8187425555	       -6.4823536376	        2.6019711110	       -0.6375461165	        0.1427846350	        1.0418137363	        9.2562694753	      -39.8695163506	       -1.3755578400	       -1.9272950395	       -3.2236238812	        3.0830763966	       -0.1855186645	       -0.3218541522	       -0.3339398945	        7.3055891048	        4.2002367611	        3.5670711874	        3.9667968834	        0.0432897467	        0.4789833372	       -0.2245676158	
